HIERARCHY
ROOT Hips
{
	OFFSET 0.000000 0.000000 0.000000 
	CHANNELS 6 Xposition Yposition Zposition Yrotation Zrotation Xrotation 
	JOINT Lumbar
	{
		OFFSET 0.000000 0.000000 0.000000 
		CHANNELS 3 Zrotation Xrotation Yrotation
		JOINT Neck
		{
			OFFSET 0.000000 0.445665 0.000000 
			CHANNELS 3 Zrotation Xrotation Yrotation
			End Site
			{
				OFFSET 0.000000 0.227535 0.000000 
			}
		}
		JOINT RightShoulder
		{
			OFFSET 0.019635 0.377685 0.194865 
			CHANNELS 3 Zrotation Xrotation Yrotation
			JOINT RightElbow
			{
				OFFSET 0.000000 -0.243375 0.000000 
				CHANNELS 2 Zrotation Yrotation
				JOINT RightWrist
				{
					OFFSET 0.000000 -0.264825 0.000000 
					CHANNELS 2 Zrotation Xrotation
					End Site
					{
						OFFSET 0.006600 -0.176220 0.000990 
					}
				}
			}
		}
		JOINT LeftShoulder
		{
			OFFSET 0.019635 0.377685 -0.194865 
			CHANNELS 3 Zrotation Xrotation Yrotation
			JOINT LeftElbow
			{
				OFFSET 0.000000 -0.243375 0.000000 
				CHANNELS 2 Zrotation Yrotation
				JOINT LeftWrist
				{
					OFFSET 0.000000 -0.264825 0.000000 
					CHANNELS 2 Zrotation Xrotation
					End Site
					{
						OFFSET 0.006600 -0.176220 -0.000990 
					}
				}
			}
		}
	}
	JOINT RightHip
	{
		OFFSET 0.052140 -0.069960 0.075570 
		CHANNELS 3 Zrotation Xrotation Yrotation
		JOINT RightKnee
		{
			OFFSET 0.000000 -0.402270 0.000000 
			CHANNELS 1 Zrotation
			JOINT RightAnkle
			{
				OFFSET 0.000000 -0.404085 0.000000 
				CHANNELS 3 Zrotation Xrotation Yrotation
				End Site
				{
					OFFSET 0.204105 -0.089430 0.008415 
				}
			}
		}
	}
	JOINT LeftHip
	{
		OFFSET 0.052140 -0.069960 -0.075570 
		CHANNELS 3 Zrotation Xrotation Yrotation
		JOINT LeftKnee
		{
			OFFSET 0.000000 -0.402270 0.000000 
			CHANNELS 1 Zrotation
			JOINT LeftAnkle
			{
				OFFSET 0.000000 -0.404085 0.000000 
				CHANNELS 3 Zrotation Xrotation Yrotation
				End Site
				{
					OFFSET 0.204105 -0.089430 -0.008415 
				}
			}
		}
	}
}
MOTION
Frames: 33
Frame Time: 0.02
0.67546 0.12626 0.13015 74.25051 -36.56195 -19.00601 45.54858 -0.01761 -7.72297 -11.56139 -5.26549 -0.83079 6.63262 -53.12067 0.3652 98.34613 104.05102 24.58959 -0.50148 56.30377 9.44471 -32.20296 91.15718 -85.26999 15.73904 2.88375 58.97383 0.65403 -9.94512 -33.12337 -8.29891 -4.82804 -3.28556 50.60979 6.36567 -0.62626 -25.41572 -8.66995 4.834 3.3181
0.6754 0.12623 0.12791 74.2312 -36.70172 -18.90858 45.74973 -0.16155 -8.02524 -11.3398 -5.18878 -0.83079 5.17644 -52.49044 0.6388 98.49299 100.27776 22.32888 -1.20604 55.95566 9.44725 -32.38471 91.15894 -85.45658 13.90199 2.56466 58.68911 1.29966 -10.68135 -32.00729 -8.16339 -4.66985 -3.19493 50.57074 6.37596 -0.01036 -25.40999 -8.62841 4.8003 3.29409
0.67579 0.12638 0.12494 74.21523 -36.89907 -18.82134 46.04475 -0.33078 -8.29545 -10.98 -5.03729 -0.83079 4.08898 -51.70419 1.90345 97.93646 94.72828 18.1808 -1.9332 55.59397 9.42004 -32.72396 91.16656 -86.06406 11.35755 2.06953 58.23068 2.03229 -11.30579 -30.47725 -8.0553 -4.49351 -3.09771 50.52769 6.43127 0.73062 -25.37848 -8.57991 4.75915 3.26414
0.67597 0.12642 0.12226 74.19437 -37.06225 -18.72817 46.29438 -0.48393 -8.57573 -10.67779 -4.92349 -0.83079 2.91711 -50.979 2.7505 97.71759 90.12283 14.94676 -2.5955 55.2361 9.41323 -32.97545 91.17311 -86.47608 9.24935 1.67264 57.84328 2.71534 -11.97868 -29.14714 -7.93618 -4.32374 -3.00226 50.48066 6.45966 1.39445 -25.36366 -8.53631 4.72319 3.23821
0.67617 0.12656 0.11974 74.1842 -37.25997 -18.64112 46.55714 -0.65816 -8.87551 -10.39261 -4.79362 -0.83079 1.4087 -50.28427 3.45953 97.40922 84.89858 11.45754 -3.48654 54.88619 9.3769 -33.2929 91.16943 -86.90348 6.67383 1.20059 57.48788 3.4442 -12.67239 -27.75959 -7.80811 -4.15788 -2.90996 50.45865 6.51758 2.15258 -25.32669 -8.48526 4.67928 3.20658
0.67643 0.12655 0.11671 74.15404 -37.39972 -18.54257 46.81396 -0.79319 -9.12499 -10.04107 -4.67951 -0.83079 0.68411 -49.48923 4.68435 97.13093 80.56176 8.06911 -3.91457 54.51702 9.39318 -33.51252 91.18892 -87.39415 4.8853 0.84213 57.02687 4.09504 -13.28821 -26.39982 -7.70617 -3.98154 -2.81075 50.38383 6.524 2.74351 -25.33076 -8.44793 4.64998 3.18526
0.67675 0.12606 0.11247 74.06713 -37.35788 -18.42158 47.03445 -0.82174 -9.26644 -9.53927 -4.62862 -0.83079 2.02584 -48.5051 7.18007 97.03661 79.04857 5.27408 -2.96573 54.10126 9.58643 -33.40904 91.28152 -88.024 5.58886 0.84556 56.29489 4.53332 -13.76393 -25.17461 -7.67147 -3.77127 -2.68851 50.15985 6.37521 2.80626 -25.44993 -8.45275 4.66649 3.19619
0.67711 0.12542 0.10774 73.96108 -37.25687 -18.28683 47.24474 -0.80842 -9.35431 -8.97594 -4.59598 -0.83079 4.14431 -47.41817 10.14741 97.00903 78.5023 2.66478 -1.56585 53.66668 9.82939 -33.20514 91.39574 -88.69098 7.08119 0.96785 55.4666 4.88553 -14.15597 -24.00041 -7.66224 -3.55312 -2.56076 49.88454 6.17331 2.70058 -25.61397 -8.47131 4.69734 3.2173
0.67744 0.12486 0.10322 73.86415 -37.18764 -18.15026 47.45786 -0.80886 -9.45179 -8.44249 -4.5542 -0.83079 5.90833 -46.34818 12.83853 97.00129 77.56396 0.07876 -0.43323 53.23839 10.03408 -33.05601 91.49394 -89.29875 8.11611 1.03267 54.69662 5.26094 -14.55332 -22.83165 -7.64057 -3.34517 -2.43943 49.63406 5.9963 2.69496 -25.75824 -8.4818 4.71934 3.23227
0.67784 0.12427 0.09869 73.76352 -37.0999 -18.04682 47.68292 -0.83215 -9.61026 -7.89754 -4.51348 -0.83079 7.68597 -45.39894 15.81588 96.76574 76.37983 -2.99106 0.95868 52.81757 10.30426 -32.87118 91.61902 -90.10243 9.54377 1.10759 53.85918 5.70601 -15.08231 -21.52693 -7.62336 -3.10883 -2.30142 49.37281 5.81659 2.59823 -25.89168 -8.49928 4.751 3.25342
0.67811 0.1237 0.0941 73.6685 -37.03576 -17.8726 47.87816 -0.79793 -9.62953 -7.36185 -4.47573 -0.83079 9.62193 -44.17491 18.30809 97.01883 75.93955 -5.03062 1.92142 52.37887 10.44979 -32.73812 91.69243 -90.49813 10.35045 1.18994 53.14165 5.98515 -15.3221 -20.52372 -7.60266 -2.92972 -2.19678 49.12727 5.6307 2.64509 -26.06782 -8.50617 4.76592 3.26416
0.67794 0.12317 0.08946 73.57194 -37.05181 -17.492 48.00425 -0.61222 -9.27641 -6.88508 -4.44324 -0.83079 11.74168 -42.22939 19.23862 98.7 77.51205 -3.85264 1.55868 51.87827 10.243 -32.74311 91.62483 -89.78776 9.25136 1.28266 52.77922 5.81998 -14.7549 -20.33601 -7.56537 -2.91311 -2.18717 48.89071 5.4295 3.16765 -26.27196 -8.47498 4.73188 3.24375
0.67764 0.12267 0.0848 73.4853 -37.09288 -17.04307 48.09813 -0.3707 -8.78538 -6.4178 -4.41319 -0.83079 14.00331 -40.01152 19.67964 100.85473 79.77569 -1.70385 0.75383 51.36335 9.90855 -32.80799 91.50349 -88.66044 7.50587 1.37644 52.54118 5.49148 -13.90593 -20.45278 -7.52369 -2.95397 -2.21106 48.68005 5.22647 3.83314 -26.53177 -8.43357 4.68012 3.21235
0.67742 0.12216 0.08017 73.40893 -37.1223 -16.635 48.1994 -0.15625 -8.35844 -5.93398 -4.38145 -0.83079 16.24032 -37.90859 20.40964 102.73608 81.5997 -0.27546 0.17173 50.86658 9.62992 -32.86449 91.40175 -87.69931 6.05533 1.45774 52.24734 5.24236 -13.20488 -20.43551 -7.48435 -2.967 -2.21868 48.48891 5.03056 4.4071 -26.81873 -8.40063 4.63633 3.18616
0.67713 0.12162 0.07543 73.27133 -37.15237 -16.18588 48.33138 0.06769 -7.92379 -5.49651 -4.35284 -0.83079 18.3387 -35.83071 20.87567 104.87193 83.97264 2.30036 -0.48523 50.32095 9.36189 -32.83967 91.31978 -86.82774 4.61624 1.59228 51.94868 4.9695 -12.41513 -20.40217 -7.44444 -2.98706 -2.23061 48.16578 4.80348 5.08589 -26.8883 -8.35258 4.59445 3.16007
0.67695 0.12116 0.07091 73.26159 -37.18594 -15.8052 48.39138 0.28351 -7.47293 -4.96937 -4.31793 -0.83079 20.74648 -33.64805 21.76929 106.58053 85.3711 2.76055 -1.09911 49.87273 9.04133 -32.99775 91.18525 -85.68309 3.00289 1.61646 51.68872 4.70721 -11.74663 -20.47313 -7.40435 -3.00609 -2.24148 48.12199 4.64506 5.58443 -27.4202 -8.33269 4.54286 3.13022
0.67715 0.12097 0.06703 73.62162 -37.23936 -15.63914 48.26476 0.47196 -7.01312 -4.16028 -4.26625 -0.83079 23.99142 -31.15199 23.95368 107.07041 83.76042 -3.25232 -1.46958 49.70758 8.60351 -33.66375 90.9043 -83.77159 0.94828 1.31848 51.52491 4.52483 -11.46074 -20.76553 -7.36477 -3.00984 -2.24221 48.86307 4.64706 5.53187 -29.23739 -8.39933 4.4811 3.09996
0.67746 0.12087 0.06337 74.1061 -37.29287 -15.54284 48.06628 0.6484 -6.54151 -3.26704 -4.20783 -0.83079 27.53335 -28.57768 26.58194 107.09997 81.16824 -11.3554 -1.78566 49.63906 8.11852 -34.50898 90.57487 -81.6193 -1.24221 0.91099 51.39289 4.35734 -11.30968 -21.15063 -7.32507 -3.01043 -2.24063 49.88018 4.72387 5.29594 -31.51028 -8.49359 4.40838 3.0652
0.6777 0.12073 0.05961 74.52163 -37.3357 -15.40865 47.89764 0.82449 -6.07437 -2.43348 -4.15161 -0.83079 30.92678 -26.09878 29.0143 107.2888 79.11869 -18.24374 -2.14099 49.5195 7.65598 -35.26119 90.27707 -79.65427 -3.29567 0.56566 51.2335 4.17614 -11.11283 -21.48797 -7.28533 -3.01129 -2.23937 50.75909 4.78627 5.1585 -33.56394 -8.57083 4.33187 3.02725
0.67801 0.12057 0.05585 74.99144 -37.42352 -15.29766 47.73881 1.02734 -5.6067 -1.50917 -4.09912 -0.83079 34.39214 -23.35628 31.41636 107.70242 76.6866 -26.21479 -2.45462 49.42962 7.18106 -36.06431 89.93707 -77.35251 -5.68497 0.1724 51.13164 4.01764 -10.84605 -21.86003 -7.24578 -3.01856 -2.24202 51.69574 4.76643 4.9673 -35.68434 -8.66591 4.28952 3.00971
0.6782 0.12048 0.05213 75.37558 -37.4183 -15.15648 47.5441 1.17053 -5.13843 -0.75443 -4.03726 -0.83079 37.76454 -21.1495 33.97942 107.53551 74.80846 -32.44153 -2.83083 49.30091 6.72699 -36.80314 89.6739 -75.69235 -7.40373 -0.15243 50.91751 3.81863 -10.75392 -22.17746 -7.20596 -3.01165 -2.23596 52.57354 4.93498 4.83596 -37.75626 -8.73139 4.17647 2.95037
0.67809 0.12055 0.04845 75.50975 -37.14763 -14.90982 47.2578 1.15459 -4.67864 -0.48353 -3.95068 -0.83079 40.90545 -20.43044 36.99894 105.84868 74.69773 -33.32893 -3.44047 49.04296 6.30491 -37.32094 89.63677 -75.93887 -7.18978 -0.21262 50.37153 3.49534 -11.17137 -22.3232 -7.16448 -2.96006 -2.20261 53.25363 5.61208 4.97109 -39.72672 -8.7012 3.84635 2.76252
0.67783 0.12068 0.0448 75.54993 -36.78482 -14.63188 46.93994 1.07848 -4.21841 -0.38728 -3.855 -0.83079 43.92317 -20.2578 40.14515 103.59706 75.17295 -32.39599 -4.10421 48.74259 5.91419 -37.76759 89.67836 -76.83066 -6.30054 -0.20712 49.71371 3.1331 -11.75101 -22.40915 -7.12292 -2.8951 -2.16106 53.85859 6.47513 5.16114 -41.60484 -8.64187 3.4499 2.53535
0.6776 0.1208 0.04112 75.62222 -36.46964 -14.37163 46.64329 1.02754 -3.75377 -0.21402 -3.76375 -0.83079 46.93267 -19.84193 43.15665 101.6204 75.38074 -32.30848 -4.70965 48.46037 5.53261 -38.24622 89.68307 -77.37495 -5.75063 -0.26659 49.11544 2.79546 -12.21714 -22.51936 -7.08207 -2.84022 -2.12568 54.47689 7.24853 5.28893 -43.43143 -8.60038 3.10026 2.33568
0.67757 0.12088 0.03752 75.74462 -36.13011 -14.09818 46.31505 0.98435 -3.30632 -0.02698 -3.67092 -0.83079 50.22494 -19.39681 46.50867 99.54893 75.56886 -32.21561 -5.45475 48.18536 5.04572 -38.73232 89.6914 -78.12575 -5.07524 -0.19065 48.48062 2.42966 -12.85208 -22.64414 -7.03848 -2.76875 -2.08016 55.19355 8.04566 5.56959 -45.6714 -8.53959 2.68074 2.09567
0.67707 0.12104 0.03374 75.73746 -35.81947 -13.84505 46.04613 0.91219 -2.82537 0.08769 -3.57942 -0.83079 52.89354 -19.14949 49.17622 97.54905 75.93815 -31.67573 -5.92381 47.88515 4.79234 -39.18402 89.71063 -78.62025 -4.49107 -0.36843 47.89604 2.11238 -13.1769 -22.72458 -7.00042 -2.72822 -2.05353 55.68279 8.83729 5.5451 -47.01906 -8.51279 2.39004 1.92981
0.67543 0.12141 0.02948 75.40526 -35.61066 -13.64546 45.94859 0.76337 -2.2331 0.05448 -3.49299 -0.83079 53.88241 -19.2641 49.91953 95.86811 76.76889 -30.32448 -5.60383 47.51631 5.12394 -39.55345 89.74833 -78.09926 -4.39058 -1.36107 47.46823 1.94514 -12.5622 -22.68435 -6.97907 -2.78077 -2.08371 55.57071 9.5607 4.68562 -45.9539 -8.5773 2.48105 1.9834
0.6733 0.12183 0.02503 74.94341 -35.43425 -13.46884 45.91219 0.58956 -1.61079 -0.04743 -3.40838 -0.83079 54.24509 -19.56872 49.96988 94.28499 77.74769 -28.57838 -5.00601 47.12541 5.69886 -39.89053 89.79274 -77.32549 -4.39237 -2.59371 47.09672 1.82682 -11.63538 -22.60376 -6.9631 -2.86432 -2.1328 55.22984 10.27257 3.51575 -43.98796 -8.67837 2.7022 2.11202
0.67133 0.1222 0.02065 74.53398 -35.24329 -13.28825 45.84837 0.4348 -1.01464 -0.12464 -3.32353 -0.83079 54.88356 -19.82004 50.33502 92.66937 78.59431 -27.0193 -4.54573 46.74964 6.19764 -40.24475 89.8298 -76.76928 -4.30245 -3.64993 46.70491 1.68172 -10.88172 -22.54919 -6.94365 -2.93059 -2.17135 54.98632 10.99507 2.47301 -42.41131 -8.76937 2.85743 2.20302
0.66963 0.12272 0.01632 74.14903 -35.04818 -13.07985 45.78211 0.24579 -0.36545 -0.18134 -3.23598 -0.83079 55.55079 -19.95116 50.69784 90.97978 79.73228 -25.3725 -4.04359 46.34866 6.55461 -40.58689 89.88925 -75.80932 -4.37851 -4.98305 46.28554 1.55434 -10.00933 -22.45896 -6.92826 -3.00904 -2.21734 54.76653 11.70388 1.48414 -40.90967 -8.83315 3.03902 2.30762
0.66724 0.12292 0.01185 73.68322 -34.87085 -12.93452 45.73557 0.12255 0.18011 -0.2936 -3.15449 -0.83079 56.01629 -20.37027 50.90873 89.47929 80.29409 -23.83 -3.5571 45.99829 7.26114 -40.94667 89.90075 -75.61261 -4.14384 -5.8038 45.94011 1.40233 -9.2983 -22.43572 -6.9061 -3.07068 -2.25301 54.44619 12.43287 0.3171 -39.04759 -8.9609 3.1974 2.40212
0.66322 0.12226 0.00709 73.02885 -34.73331 -12.96393 45.73144 0.1908 0.43405 -0.55183 -3.09018 -0.83079 56.02931 -21.53783 50.78122 88.44206 79.21106 -22.74374 -3.22661 45.77055 8.90156 -41.37092 89.79368 -77.66416 -3.01142 -5.09436 45.77119 1.16902 -9.19166 -22.59437 -6.86052 -3.06952 -2.25051 53.88513 13.24533 -1.3375 -36.33869 -9.27162 3.26116 2.45163
0.65851 0.12126 0.00219 72.29774 -34.61341 -13.05499 45.74474 0.32557 0.58215 -0.86086 -3.03179 -0.83079 55.86864 -22.98486 50.53688 87.60056 77.55065 -21.76959 -2.91523 45.59972 10.88028 -41.8139 89.6346 -80.47534 -1.56827 -3.87161 45.67802 0.90944 -9.24241 -22.82447 -6.80865 -3.052 -2.2379 53.23506 14.07204 -3.147 -33.31356 -9.6426 3.29732 2.48843
